<?xml version="1.0" encoding="utf-8"?>
<!-- Generator: Adobe Illustrator 26.0.1, SVG Export Plug-In . SVG Version: 6.00 Build 0)  -->
<svg version="1.1" id="Layer_1" xmlns="http://www.w3.org/2000/svg" xmlns:xlink="http://www.w3.org/1999/xlink" x="0px" y="0px"
	 viewBox="0 0 434 369" style="enable-background:new 0 0 434 369;" xml:space="preserve">
<style type="text/css">
	.st0{fill:#C79C40;}
	.st1{fill:#C79C41;}
	.st2{fill:#C89D42;}
	.st3{fill:#C89E44;}
	.st4{fill:#C89E43;}
</style>
<g>
	<path class="st0" d="M235.7,96.9c2.1,1,4.2,1.5,6.5,0.8c1.3-0.3,2.4-1,3.5-1.9c8.2-7,16.4-13.9,24.6-20.9c1.2-1,2.4-2,4-2.4
		c1.9-0.6,3.8-0.3,5.6,0.3c0.4,0.1,0.6,0,0.4-0.4c-4.5-5.3-9-10.6-13.5-16c-1.2-1.5-2.7-2.5-4.5-3c-2.9-0.8-5.3,0.1-7.5,1.9
		c-2.3,2-4.6,3.9-6.9,5.9c-6.1,5.2-12.2,10.4-18.4,15.6c-2.8,2.4-5.9,2.7-9.2,1.4c-0.4-0.1-0.6-0.1-0.3,0.4c3.7,4.3,7.4,8.7,11,13
		c0.1,0.1,0.2,0.2,0.3,0.3c0.1,0.1,0.1,0.2,0.1,0.3c-0.1,0.1-0.3,0.1-0.5,0c-0.1,0-0.2-0.1-0.3-0.1c-0.1-0.1-0.3-0.1-0.4-0.2
		c-3.6-1.5-6.7-1-9.6,1.5c-6.1,5.2-12.2,10.4-18.4,15.6c-2.2,1.9-4.4,3.8-6.6,5.7c-3.8,3.1-8.9,2.8-12.1-1
		c-3.1-3.7-6.3-7.4-9.4-11.1c-0.1-0.1-0.2-0.3-0.3-0.3c-0.9-1-0.9-1-2-0.2c-1.7,1.4-3.3,2.8-5,4.3s-3.4,2.9-5.1,4.3
		c-3.6,3.1-9.1,2.9-12.5-1.1c-12.6-15-25.3-29.9-37.9-44.9c-2.7-3.2-5.4-6.3-8.1-9.6c-0.8-1-0.8-1,0.1-1.8c3.6-3.1,7.3-6.1,10.8-9.2
		c3.1-2.7,8.6-2.6,11.6,1c2.9,3.4,5.9,6.9,8.8,10.3c0.3,0.3,0.7,0.8,1,1.2c2.4,3.7,8.2,3.7,11.3,1c1.7-1.4,3.3-2.8,5-4.3
		c6.8-5.8,13.6-11.5,20.4-17.3c4-3.4,9.3-2.8,12.5,1c4.7,5.7,9.4,11.2,14.2,16.7c0.1,0.3,0,0.5-0.3,0.3c-3.6-1.8-7-1.5-10,1.2
		c-8.1,6.9-16.3,13.7-24.3,20.7c-2.9,2.4-5.9,3.3-9.4,2.2c-0.4-0.1-0.6,0-0.4,0.4c4.5,5.3,8.9,10.5,13.3,15.8
		c3.1,3.6,8.4,4.1,12.1,1c6.8-5.9,13.8-11.8,20.7-17.7c1.3-1.2,2.7-2.3,4-3.5c2.7-2.4,5.8-2.9,9.1-1.7c0.2,0.1,0.4,0.1,0.6,0.2
		c0.1,0,0.1-0.1,0.3-0.1c-3.8-4.5-7.6-9-11.4-13.5c-0.1-0.3,0-0.5,0.3-0.3c3.7,1.7,7,1.3,10-1.4c7.9-6.8,15.8-13.4,23.7-20.2
		c0.5-0.4,1-0.8,1.5-1.3c3.6-2.8,8.4-2.5,11.4,0.9c2.3,2.6,4.5,5.2,6.8,7.9c1.1,1.3,2.2,2.7,3.3,4c0.8,0.8,0.8,0.9,1.7,0.1
		c3.3-2.8,6.6-5.7,9.9-8.4c1.5-1.3,3.2-2.2,5.2-2.4c2.9-0.2,5.4,0.8,7.3,3c2.7,3.2,5.5,6.5,8.2,9.7c7.7,9.1,15.4,18.2,23.2,27.4
		c5,5.9,10,11.9,15.1,17.7c0.6,0.6,0.7,1-0.1,1.6c-3.7,3.1-7.3,6.3-11.2,9.3c-3.6,2.9-8.4,2.4-11.4-1.1c-3.4-3.8-6.7-7.8-10-11.7
		c-1-1.3-2.4-2-4-2.3c-2.7-0.6-5.1,0.1-7.2,1.8c-4.5,3.8-8.9,7.5-13.3,11.2c-4.1,3.5-8.2,7-12.4,10.5c-3.6,3-8.7,2.6-11.7-0.9
		c-4.7-5.5-9.3-11.1-14-16.6c-0.1-0.1-0.1-0.2-0.2-0.3C235.5,97.1,235.5,97,235.7,96.9z"/>
	<path class="st0" d="M83.1,278.8c-2.9,0-5.9,0-8.9,0c-1.2,0-1.3,0-1.3-1.2c0-1-0.3-2.2,0.1-2.9c0.6-0.8,1.7-0.3,2.7-0.5
		c1.8-0.4,2-0.6,2.3-2.3c0.1-0.5,0.1-1,0.1-1.5c0-4.6,0-9.1,0-13.7c0-1.3,0-1.3-1.3-1.3c-5.1,0-10.1,0-15.2,0c-1.3,0-1.4,0-1.4,1.5
		c0,4.2,0,8.4,0,12.6c0,3.2,0.9,4.3,4,5c1.3,0.3,1.3,0.3,1.3,1.6c0,0.6-0.1,1.3,0,1.8c0.1,0.9-0.3,1.1-1.2,1.1c-4,0-8.2,0-12.2,0
		c-2,0-4,0-6,0c-0.9,0-1.2-0.3-1.1-1.2c0.1-0.8,0.1-1.5,0-2.4c-0.1-0.7,0.3-1,1-1c0.8,0,1.7-0.2,2.5-0.3c1-0.1,1.5-0.7,1.6-1.7
		c0.1-0.9,0.3-1.7,0.3-2.7c0-9.8,0-19.7,0-29.6c0-0.7-0.1-1.3-0.1-2c-0.3-1.9-0.5-2.1-2.4-2.4c-0.1,0-0.3-0.1-0.5-0.1
		c-0.7-0.1-1.6,0.2-2.1-0.3c-0.6-0.6-0.1-1.5-0.2-2.2c0-0.4,0-0.8,0-1.2c0-0.6,0.2-0.8,0.8-0.8c0.3,0,0.7,0,1,0c5.7,0,11.2,0,16.9,0
		c0.3,0,0.7,0,1,0c0.6,0,0.8,0.2,0.8,0.8c0,1,0,1.9,0,2.9c0,0.6-0.3,0.8-0.8,0.8c-0.9,0-1.7,0.1-2.7,0.3c-1,0.2-1.5,0.8-1.6,1.8
		c-0.1,0.7-0.2,1.3-0.2,2c0,3.2,0,6.3,0,9.6c0,0.8,0.2,1.2,1.1,1.2c5.2,0,10.5,0,15.7,0c0.8,0,1.1-0.3,1-1c-0.1-3.4,0-6.8,0-10.2
		c0-0.1,0-0.2,0-0.3c-0.3-2.5-0.6-2.9-3.2-3.1c-2.1-0.2-2.1-0.2-2.1-2.4c0-2.4-0.3-2.1,2.2-2.1c5.6,0,11.2,0,16.7,0
		c1.6,0,1.6,0,1.6,1.7c0,0.8,0.3,1.8-0.1,2.4c-0.5,0.7-1.5,0.3-2.4,0.4c-2.1,0.3-2.6,0.8-2.7,2.9c-0.1,1.3-0.1,2.6-0.1,3.8
		c0,9,0,17.9,0,26.9c0,1,0,2,0.1,3c0.1,1.1,0.6,1.5,1.7,1.7c0.7,0.1,1.5,0.2,2.2,0.3c1.3,0.1,1.3,0.1,1.3,1.4
		c-0.1,3.7,0.6,3-3.1,3.1C88,278.8,85.6,278.8,83.1,278.8z"/>
	<path class="st0" d="M378.8,209.9c-3,0-6,0-9,0c-1.2,0-1.2-0.1-1.3-1.2c0-0.1,0-0.2,0-0.3c0.1-0.9-0.3-1.9,0.1-2.6
		c0.5-0.7,1.5-0.3,2.4-0.3c2-0.3,2.4-0.7,2.7-2.8c0.1-0.4,0.1-0.8,0.1-1.2c0-4.5,0-9.1,0-13.5c0-1.4,0-1.4-1.4-1.4c-5,0-10,0-15.1,0
		c-1.3,0-1.3,0.1-1.3,1.3c0,4.4,0,8.8,0,13.2c0,2.5,0.9,3.6,3.4,4.3c0.3,0.1,0.6,0.1,1,0.1c0.6,0,0.8,0.2,0.8,0.8c0,1,0,1.9,0,2.9
		c0,0.6-0.3,0.8-0.8,0.8c-0.3,0-0.7,0-1,0c-5.7,0-11.2,0-16.9,0c-0.4,0-0.8,0-1.2,0c-0.4,0-0.6-0.3-0.6-0.6c0-1,0-2,0-3
		c0-0.6,0.3-0.8,0.8-0.8c0.9,0,1.7-0.1,2.7-0.3c1-0.2,1.5-0.7,1.6-1.7c0.1-0.7,0.2-1.5,0.2-2.2c0-10.2,0-20.4,0-30.6
		c0-0.1,0-0.2,0-0.3c-0.1-3.3-0.8-3.4-3.4-3.6c-0.3,0-0.6-0.1-0.8-0.1c-0.8,0-1-0.3-1-1.1c-0.1-3.4-0.2-3.4,3.2-3.4
		c5.2,0,10.5,0,15.7,0c1.5,0,1.5,0,1.5,1.6c0,2.8,0,2.8-2.7,3.1c-1.8,0.2-2.4,0.7-2.4,2.6c-0.1,3.7,0,7.4-0.1,11c0,0.8,0.3,1,1.1,1
		c5.2,0,10.4,0,15.6,0c0.9,0,1.1-0.4,1.1-1.3c0-3.3,0-6.6,0-9.8c0-0.1,0-0.1,0-0.1c-0.2-2.9-0.6-3.2-3.3-3.4c-0.1,0-0.3,0-0.5-0.1
		c-1.4-0.1-1.4-0.1-1.4-1.6c0-0.6,0.1-1.3,0-1.8c-0.1-0.9,0.3-1.1,1.2-1.1c6,0,12.1,0,18.1,0c1.2,0,1.3,0,1.3,1.2
		c0,1,0.3,2.2-0.2,2.9c-0.6,0.8-1.7,0.3-2.7,0.5c-1.7,0.2-2,0.6-2.2,2.3c-0.1,0.8-0.2,1.7-0.2,2.5c0,9.6,0,19,0,28.6
		c0,1,0.1,2,0.2,3c0.1,1,0.6,1.6,1.6,1.8c0.8,0.1,1.7,0.3,2.5,0.3c0.8,0,1,0.3,1,1c0,0.8-0.1,1.5,0,2.4c0.1,0.9-0.3,1.1-1.2,1.1
		C384.8,209.9,381.8,209.9,378.8,209.9z"/>
	<path class="st0" d="M298.9,231.1c3.6,0,7.3,0,10.9,0c0.6,0,1.3-0.1,1.8-0.1c0.7,0,1.2-0.3,1.3-1c0.1-0.7,0.5-0.8,1-0.8
		c1,0,2,0.1,3,0c0.8-0.1,1,0.3,1,1c0,2.7,0,5.4,0,8c0,2,0,3.9,0,5.9c0,1.3,0,1.3-1.4,1.4c-1.2,0-2.4,0-3.5,0c-0.8,0-1.2-0.2-1.1-1
		c0-0.3,0-0.7-0.1-1c-1-6.6-5.7-8-10.3-8c-0.6,0-1,0.2-1,0.8c-0.1,2.9-0.4,5.8,0.2,8.7c1,4.3,3.4,6.2,7.8,6.2c1.3,0,2.7,0,4,0
		c0.7,0,1,0.3,1,1c0,1.1,0,2.2,0,3.3c0,0.7-0.3,1-1,1c-1.3,0-2.7,0-4,0.1c-2.2,0.1-4.5,0.2-6.7,0.2c-0.7,0-1.1,0.1-1.1,1
		c0,5.2,0,10.3,0,15.4c0,0.8,0.3,1,1.1,1c1.5,0,3-0.1,4.5-0.5c3.5-0.9,5.9-3.1,7.1-6.5c0.4-1.1,0.8-2.2,1-3.3c0.1-0.9,0.6-1,1.4-1
		c1.3,0.1,2.4,0,3.7,0c1.1,0,1.3,0.1,1,1.3c-0.6,2.9-1.2,5.8-1.7,8.7c-0.4,2-0.8,4-1.2,6.1c-0.3,1.3-0.3,1.3-1.7,1.3
		c-0.7,0-1.5,0-2.2,0s-1.4,0.1-1.2-1c0.1-0.4-0.3-0.6-0.6-0.6c-0.4,0-0.9,0-1.3,0c-7.6,0-15.3,0-22.9,0c-0.4,0-0.9,0-1.3,0
		c-0.6,0-0.9-0.3-0.8-0.9c0-0.2,0-0.4,0-0.7c0-0.8-0.2-1.8,0.1-2.4c0.4-0.8,1.5-0.2,2.3-0.5c0.3-0.1,0.6-0.1,1-0.2
		c1-0.1,1.5-0.7,1.7-1.7c0.1-0.7,0.2-1.3,0.2-2c0-10.3,0-20.5,0-30.8c0-3.3-0.5-3.8-3.8-4c-1.5-0.1-1.5-0.1-1.5-1.5c0-0.7,0-1.3,0-2
		c0-0.7,0.3-1,1-1c1.3,0,2.6,0,3.8,0C293.2,231.1,296.1,231.1,298.9,231.1z"/>
	<path class="st0" d="M237.8,253.4c0,5.2,0,10.5,0,15.7c0,3.3,0.8,4.5,4,5c1,0.2,1.4,0.4,1.3,1.5c-0.1,0.6-0.1,1.3,0,2
		c0.1,0.9-0.3,1.1-1.2,1.1c-6.1,0-12.1,0-18.2,0c-0.9,0-1.2-0.3-1.1-1.2c0.1-1-0.3-2.2,0.2-2.9c0.5-0.8,1.7-0.3,2.7-0.6
		c1.9-0.4,2.2-0.7,2.3-2.7c0.1-0.8,0.1-1.5,0.1-2.4c0-10.5,0-21.1,0-31.6c0-0.3,0-0.7,0-1c0.1-0.8-0.3-1-1.1-1
		c-2.9,0.1-5.2,1.3-6.5,4c-0.8,1.6-1.2,3.3-1.2,5c0,0.9-0.4,1.1-1.2,1.1c-1.3-0.1-2.6-0.1-3.8,0c-0.7,0-1-0.3-1-1c0-4.7,0-9.3,0-14
		c0-0.8,0.2-1.1,1-1.1c0.7,0.1,1.3,0,2,0c0.8,0,1.7-0.3,1.7,1.1c0,0.3,0.3,0.4,0.6,0.5c0.4,0,0.9,0,1.3,0c8.7,0,17.4,0,26.1,0
		c0.3,0,0.7,0,1,0c0.6,0,1-0.2,1-0.8c0-0.6,0.3-0.8,0.8-0.7c0.1,0,0.1,0,0.1,0c1.3,0.1,2.9-0.5,3.8,0.2c0.9,0.8,0.3,2.4,0.3,3.7
		c0.1,3.6,0,7.1,0,10.7c0,1.5,0,1.5-1.6,1.5c-1.1,0-2.2,0-3.3,0c-0.8,0-1.1-0.2-1.1-1c0-1.2-0.2-2.3-0.6-3.4c-1-3.3-3.5-5.3-7-5.5
		c-1.3-0.1-1.4-0.1-1.4,1.3c0,5,0,10,0,15.1C237.8,252.5,237.8,253,237.8,253.4z"/>
	<path class="st0" d="M262.7,185.2c2.7-4.5,5.4-8.9,6.3-14.2c0.1-0.3,0.1-0.6,0.1-0.8c0.2-2.5-0.4-3.2-2.9-3.3
		c-3.3-0.2-2.7,0.1-2.7-2.9c0-0.3,0-0.6,0-0.8c0-0.6,0.3-0.9,0.9-0.9c1,0,2,0,3,0c5,0,9.9,0,14.9,0c1.3,0,1.3,0,1.3,1.3
		c0,0.2,0,0.4,0,0.7c0,0.7,0.1,1.5-0.1,2.2c-0.3,0.8-1.3,0.5-1.9,0.8c-1.6,0.7-2.9,1.7-4,3c-1.5,1.8-2.7,3.8-3.8,5.9
		c-2.8,4.8-5.6,9.6-8.4,14.4c-0.4,0.8-0.6,1.5-0.6,2.4c0,2.7,0.1,5.2,0,7.9c-0.1,3.3,1.6,4.3,3.9,4.7c1.4,0.3,1.5,0.3,1.4,1.6
		c0,3.4,0.4,2.9-2.8,2.9c-5.4,0-10.7,0-16,0c-1.7,0-1.8,0-1.7-1.7c0-0.8-0.3-1.8,0.1-2.4c0.5-0.7,1.5-0.3,2.4-0.4
		c2.2-0.3,2.7-0.8,2.7-3c0.1-3.3,0-6.7,0.1-10c0-0.5-0.1-1-0.3-1.5c-3.2-6.3-6.2-12.8-9.6-19.1c-0.4-0.8-0.9-1.5-1.4-2.3
		c-1-1.4-2.2-2.4-4-2.6c-0.9-0.1-1.3-0.5-1.2-1.4c0.1-4-0.6-3.2,3.1-3.2c3.8-0.1,7.5,0,11.2,0c2,0,1.9-0.1,1.9,2c0,0.5,0,1,0,1.5
		c0,0.3,0.1,0.7-0.1,0.8c-1.3,0.4-0.6,1.2-0.3,1.8c2.7,5.3,5.3,10.6,8,15.8C262,184.4,262.1,184.9,262.7,185.2z"/>
	<path class="st0" d="M380.7,280.4c-0.1-1.6-0.1-1.7-1.6-1.7c-7.9,0-15.7,0-23.6,0c-2,0-1.8,0.1-1.8-1.8c0-0.8-0.2-1.7,0.1-2.3
		c0.4-0.8,1.5-0.2,2.2-0.4c0.4-0.1,0.9-0.1,1.3-0.2c0.8-0.1,1.3-0.6,1.4-1.5c0.1-0.9,0.3-1.9,0.3-2.8c0-9.8,0-19.7,0-29.6
		c0-0.6-0.1-1.3-0.1-1.8c-0.3-2.2-0.6-2.4-2.7-2.7c-0.8-0.1-2,0.3-2.3-0.4c-0.5-1.1-0.2-2.4-0.1-3.6c0-0.3,0.3-0.4,0.6-0.5
		c0.3,0,0.7,0,1,0c5.9,0,11.9-0.1,17.9-0.1c1,0,1.1,0.1,1.2,1.1c0,0.1,0,0.3,0,0.5c-0.1,0.9,0.3,1.9-0.2,2.6s-1.6,0.3-2.4,0.3
		c-2.2,0.3-2.7,0.7-2.7,3s-0.1,4.6-0.1,6.8c0,8.8,0,17.7,0,26.4c0,0.3,0,0.7,0,1c0,1.5,0,1.5,1.5,1.5c0.9,0,1.8,0,2.7-0.1
		c4.8-0.6,7.5-3.6,8.9-8c0.2-0.7,0.4-1.4,0.6-2.1c0.1-0.8,0.5-1.2,1.3-1.1c1.3,0.1,2.6,0,3.8,0c1,0,1.1,0.1,0.9,1.2
		c-0.7,3.3-1.3,6.6-2,9.8c-0.3,1.7-0.8,3.5-1,5.2c-0.1,0.8-0.4,1.2-1.3,1.1C383.2,280.4,382.1,280.4,380.7,280.4z"/>
	<path class="st0" d="M133.9,194.3c-0.6,2.8-1.1,5.4-1.6,8c-0.6,2.7-1.1,5.2-1.6,7.9c-0.3,1.3-0.3,1.3-1.6,1.3c-0.7,0-1.3,0-2,0
		c-0.8,0-1.5,0.1-1.4-1c0.1-0.4-0.3-0.6-0.7-0.6c-0.4,0-0.9,0-1.3,0c-7.5,0-15.1,0-22.6,0c-0.4,0-0.9,0-1.3,0
		c-0.6,0-0.9-0.3-0.9-0.9c0-0.3,0-0.6,0-0.8c0.1-0.8-0.3-1.8,0.2-2.4c0.5-0.6,1.5-0.2,2.2-0.3c2.2-0.3,2.6-0.7,2.7-2.9
		c0.1-1.3,0.1-2.4,0.1-3.7c0-8.7,0-17.4,0-26.1c0-1.2-0.1-2.4-0.2-3.5c-0.1-1.7-0.6-2.1-2.3-2.3c-0.7-0.1-1.3-0.1-2-0.1
		c-0.5-0.1-0.8-0.2-0.8-0.8c0.1-1.2-0.4-2.5,0.2-3.4c0.6-0.8,1.9-0.3,2.9-0.3c5.2,0,10.5,0,15.7,0c1.7,0,1.7,0,1.7,1.6
		c0,0.9,0.3,2-0.2,2.6c-0.6,0.7-1.7,0.3-2.6,0.4c-1.8,0.2-2.2,0.6-2.4,2.4c-0.1,0.7-0.1,1.5-0.1,2.2c0,10.7,0,21.6,0,32.3
		c0,0.3,0,0.7,0,1c0,0.3,0.2,0.6,0.6,0.7c3.6,0.2,7-0.1,9.6-2.9c1.6-1.7,2.5-3.7,3.1-5.9c0.7-2.4,0.7-2.4,3.1-2.4
		C131.5,194.3,132.6,194.3,133.9,194.3z"/>
	<path class="st1" d="M345.5,325.7c-14.1,0-28.2,0-42.4,0c-0.4,0-0.9,0-1.3,0c-0.6,0-0.9-0.3-0.9-0.9c0-1,0-2,0-3c0-0.7,0.2-1,1-1
		c0.4,0,0.8,0,1.2,0c28.3,0,56.7,0,85,0c0.3,0,0.6,0,0.8,0c1.3,0.1,1.3,0.1,1.3,1.3c0,1.1,0.5,2.6-0.3,3.3c-0.7,0.7-2,0.2-3.1,0.2
		C373.1,325.7,359.3,325.7,345.5,325.7z"/>
	<path class="st1" d="M88.2,325.7c-14,0-28.1,0-42.1,0c-0.4,0-0.9,0-1.3,0c-0.6,0-0.9-0.3-0.9-0.9c0-0.1,0-0.2,0-0.3
		c0.1-1.2-0.5-2.7,0.2-3.4c0.7-0.8,2.2-0.3,3.3-0.3c27.8,0,55.6,0,83.5,0c2.2,0,2.1-0.2,2.1,2.1c0,2.9,0,2.9-2.9,2.9
		C116.1,325.7,102.2,325.7,88.2,325.7z"/>
	<path class="st0" d="M186,324.1c0.3,8.2-2.9,9.9-7,11c-0.3-0.5,0.1-0.6,0.4-0.7c2.2-1.3,3.1-3.3,3.1-5.7c0-3.7,0-7.3,0-11
		c0-0.3,0-0.7,0-1c0-1.7,0.2-1.9,1.8-1.1c1,0.4,2,0.9,2.9,1.4c0.8,0.4,0.9,0.8,0.1,1.3c-1.2,0.8-1.4,1.7-1.4,3
		c0.1,1.7,0.8,2.9,2.6,3.1c1.7,0.2,3.3,0.1,5,0.1c0.5,0,0.7-0.3,0.7-0.8c0-0.2,0-0.4,0-0.7c0-5.4,0-10.7,0-16c0-1-0.1-2-0.2-3
		c-0.1-1.1,0.3-1.5,1.4-1c1,0.5,2.1,1,3.1,1.5c0.9,0.5,1,0.8,0.3,1.3c-1.2,0.8-1.3,1.8-1.2,3.1c0,5.4,0,10.7,0,16
		c0,1.5,0,1.6-1.5,1.6c-1.9,0-3.8-0.1-5.7,0C188.5,326.6,187.2,325.8,186,324.1z"/>
	<path class="st2" d="M171.8,314.6c0-3.4,0-6.8,0-10.2c0-0.4-0.1-0.8,0.1-1.2c0.1-0.5,0.4-0.8,1-0.6c1.3,0.6,2.6,1.3,3.9,2
		c0.5,0.3,0.4,0.7,0.1,0.9c-1.5,0.8-1.4,2.2-1.4,3.6c0,5.2,0,10.5,0,15.7c0,1.5,0,1.5-1.6,1.6c-0.1,0-0.3,0-0.5,0
		c-1.5,0-1.5,0-1.5-1.5C171.8,321.5,171.8,318.1,171.8,314.6L171.8,314.6z"/>
	<path class="st2" d="M202.9,314.6c0-3.3,0-6.7,0-10c0-0.4-0.1-0.8,0-1.2c0.1-0.6,0.4-1,1-0.6c1.3,0.6,2.5,1.3,3.8,1.9
		c0.6,0.3,0.5,0.8,0.1,1c-1.3,0.8-1.3,2-1.3,3.3c0,5.2,0,10.5,0,15.7c0,1.8,0,1.8-1.8,1.8c-0.3,0-0.6,0-0.8,0
		c-0.6,0-0.9-0.3-0.9-0.9c0-0.8,0-1.5,0-2.3C202.9,320.4,202.9,317.4,202.9,314.6L202.9,314.6z"/>
	<path class="st3" d="M152.7,304.8c0,1.3-1,2.4-2.1,2.4c-1.2,0-2.2-1.2-2.2-2.5c0-1.3,1-2.4,2.1-2.4
		C151.7,302.2,152.7,303.4,152.7,304.8z"/>
	<path class="st4" d="M161.3,332.3c0,1.3-1,2.4-2.2,2.4c-1.1-0.1-2.1-1.1-2.1-2.4c0-1.4,1-2.4,2.2-2.4
		C160.4,329.9,161.3,331,161.3,332.3z"/>
	<path class="st4" d="M238.9,307c-1.2,0.1-2.2-0.9-2.2-2.2c-0.1-1.3,0.9-2.5,2.1-2.5s2.2,0.9,2.2,2.2
		C241.1,305.8,240.1,306.9,238.9,307z"/>
	<path class="st4" d="M284.9,304.6c0-1.2,1-2.3,2.2-2.4c1.2,0,2.2,1.1,2.2,2.5c0,1.3-1,2.4-2.1,2.4
		C285.9,307.1,284.9,305.9,284.9,304.6z"/>
	<path class="st3" d="M147.3,304.9c-0.1,1.3-1.1,2.3-2.2,2.3c-1.2-0.1-2.2-1.3-2.1-2.6c0.1-1.3,1.1-2.4,2.2-2.3
		C146.4,302.4,147.4,303.5,147.3,304.9z"/>
	<path class="st4" d="M235.6,304.6c-0.1,1.3-1,2.4-2.3,2.3c-1.2-0.1-2-1.1-2-2.4c0.1-1.4,1-2.4,2.3-2.3
		C234.8,302.2,235.7,303.4,235.6,304.6z"/>
	<path class="st4" d="M272.4,305.6c0,1.3-1,2.4-2.1,2.4c-1.3,0-2.2-1-2.2-2.4c0-1.3,0.9-2.3,2.1-2.4
		C271.5,303.1,272.4,304.2,272.4,305.6z"/>
	<path class="st4" d="M166.7,332.4c0,1.3-0.9,2.3-2.1,2.3s-2.2-1.2-2.2-2.4s1-2.3,2.2-2.3C165.8,329.9,166.8,331,166.7,332.4z"/>
	<path class="st0" d="M182.1,206.3c0-0.4-0.1-0.8-0.6-0.8c-3.4-0.6-5.7-2.9-7.7-5.5c-2.9-4-5.4-8.2-8.1-12.3c-0.5-0.7-0.3-1,0.3-1.5
		c1.5-0.8,2.8-1.9,4-3c3.6-3.3,5.8-7.3,5.7-12.4c-0.1-4.1-2.3-6.9-6.3-8c-1.8-0.5-3.6-0.6-5.4-0.6c-7.3,0-14.6,0-21.9,0
		c-0.3,0-0.7,0-1,0c-0.6,0-0.8,0.2-0.8,0.8c0,1,0,1.9,0,2.9c0,0.6,0.2,0.8,0.8,0.9c0.7,0.1,1.5,0.1,2.2,0.2c1.5,0.2,2,0.6,2.2,2
		c0.1,0.6,0.2,1.3,0.2,2c0,10,0,20.1,0,30.1c0,0.9-0.1,1.7-0.3,2.7c-0.1,0.8-0.6,1.2-1.3,1.3c-0.4,0.1-0.9,0.1-1.3,0.3
		c-0.8,0.1-1.7-0.3-2.2,0.3s-0.1,1.6-0.2,2.4c0,0.3,0,0.6,0,0.8c0,0.6,0.2,0.9,0.8,0.9c0.4,0,0.8,0,1.2,0c5.2,0,10.5,0,15.7,0
		c3.3,0,2.8,0.6,2.9-2.9c0-1,0-1.4-1.3-1.6c-2.9-0.3-4-1.5-4.1-4.3c-0.1-3.6,0-7.1,0-10.7c0.1-0.1,0.2-0.1,0.3-0.1
		c1.5,2.2,2.9,4.5,4.3,6.7c2,3.2,4,6.4,6.1,9.6c1.3,1.9,2.9,3.3,5.3,3.3c3.2,0.1,6.3,0,9.6,0.1c0.6,0,1-0.1,1-0.9
		C182.1,208.1,182.1,207.2,182.1,206.3z M164.6,180.5c-0.6,2.2-2.6,3.2-4.9,2.7c-1.2-0.3-2.3-0.8-3.3-1.5c-0.6-0.4-0.9-0.9-0.9-1.7
		c0-1.9,0-3.8,0-5.7c0-1.8,0-3.6,0-5.4c0-1.3,0.2-1.6,1.4-1.9c2.6-0.7,4.7-0.6,6.5,2.3C165.5,172.9,165.6,176.6,164.6,180.5z"/>
	<path class="st0" d="M179.2,252c-0.3-7.6-3.5-13.5-9.6-17.9c-6.6-4.7-13.9-5.4-21.4-3c-9.6,3-15.8,9.7-18.6,19.3
		c-1.6,5.4-1.5,11,1,16.2c4.2,8.7,11.2,13.1,20.9,13.3c1.7-0.1,3.3-0.1,5-0.4C171.6,276.7,179.6,263.1,179.2,252z M169.4,262.9
		c-0.9,4.8-3.6,8.6-8.3,10.3c-4,1.5-8.1,0.9-11.8-1c-4.9-2.6-7.7-6.9-9.6-12c-1-2.7-1.5-5.6-1.4-8.6c-0.1-2.6,0.3-5.2,1.4-7.6
		c3.1-7,9.6-8.9,15.6-7.1c4.6,1.4,8.3,4,10.7,8.2C169.2,250.5,170.6,256.5,169.4,262.9z"/>
	<path class="st0" d="M232,206.5c0-0.6-0.1-1-0.8-1.1c-2-0.3-3.3-1.5-4.2-3.3c-0.6-1.3-1.2-2.7-1.7-4c-4-11.7-8-23.3-12.1-34.9
		c-1.1-3.3-0.2-2.7-3.9-2.7c-2.2-0.1-1.7,0-2.4,1.6c-4.5,11.4-8.9,23-13.4,34.4c-0.7,1.7-1.3,3.4-2.3,5c-0.9,1.5-2.1,2.9-3.8,3.6
		c-0.6,0.2-1.4,0-1.6,0.7c-0.2,0.6-0.1,1.2-0.1,1.8c0,0.3,0,0.7,0,1c0.1,1.2,0.1,1.2,1.3,1.2c3.2,0,6.3,0,9.6,0c2.3,0,4.6,0,6.8,0
		c1.5,0,1.5,0,1.5-1.5c0-0.6-0.1-1.3,0-1.8c0.1-0.9-0.3-1.2-1.2-1.1c-0.8,0.1-1.5,0-2.4,0c-1.5-0.1-2.4-0.8-2.4-2.4
		c-0.1-0.6,0-1.1,0.1-1.7c0.3-2.1,0.8-4.1,1.5-6.1c0.3-0.8,0.6-1.2,1.5-1.1c3.5,0.1,6.9,0,10.4,0c0.7,0,1.1,0.1,1.4,0.9
		c1.1,3.3,2.3,6.8,3.5,10.3c-1.3,0.4-1.3,0.4-1.3,1.6c0,0.6,0,1.1,0,1.7c0,1.4,0,1.4,1.4,1.4c3.8,0,7.7,0.1,11.5,0
		C232.6,209.8,231.9,210.7,232,206.5z M210.8,189.1c-2.6,0-5.1,0-8,0c1.5-4.1,3.1-7.9,4.5-11.7c0.1,0,0.3,0,0.4,0.1
		c1.2,3.6,2.4,7.2,3.6,10.7C211.7,188.8,211.4,189.1,210.8,189.1z"/>
	<path class="st0" d="M91.4,206.6c0-0.6-0.1-1-0.8-1.1c-2-0.3-3.3-1.5-4.2-3.3c-0.6-1.3-1.2-2.7-1.7-4c-4-11.7-8-23.3-12.1-35
		c-1.1-3.3-0.2-2.7-3.9-2.7c-2.2,0-1.7,0-2.4,1.6c-4.3,11-8.5,21.9-12.8,32.9c-0.8,2.1-1.5,4.3-2.7,6.3c-1,1.7-2.2,3.1-4,3.9
		c-0.5,0.2-1.2,0.1-1.5,0.6c-0.3,0.6-0.1,1.2-0.1,1.8c0,0.1,0,0.3,0,0.5c0,2-0.1,1.9,1.7,1.9c2.6,0,5.2,0,7.7,0c2.7,0,5.4,0,8.2,0
		c1.4,0,1.5,0,1.4-1.4c0-1,0.5-2.2-0.3-2.9c-0.6-0.6-1.8-0.2-2.7-0.2c-2.2-0.1-3.1-0.8-2.9-3.1c0.1-2.6,0.9-5,1.7-7.5
		c0.2-0.6,0.6-0.8,1.3-0.8c0.9,0,1.8,0,2.7,0c2.7,0,5.2,0,7.9,0c0.6,0,1,0.1,1.3,0.8c1.1,3.1,2.4,6.2,3.3,9.5
		c0.1,0.6,0.4,1.1-0.6,1.2c-0.6,0-0.6,0.5-0.6,0.8c0,0.7,0,1.5,0,2.2c0,1.4,0,1.4,1.4,1.4c3.8,0,7.7,0.1,11.5,0
		C92,209.8,91.4,210.7,91.4,206.6z M62.3,189c1.5-3.9,3.1-7.7,4.5-11.6c0.1,0,0.2,0,0.3,0c1.3,3.8,2.6,7.6,3.9,11.6
		C68.1,189,65.3,189,62.3,189z"/>
	<path class="st0" d="M333.6,206.5c0-0.7-0.2-1-0.9-1.1c-2-0.3-3.3-1.5-4.2-3.3c-0.8-1.5-1.3-3.1-1.9-4.7
		c-3.9-11.3-7.7-22.7-11.7-34c-1.3-3.7-0.3-2.9-4.2-3c-1.6,0-1.6,0-2.2,1.5c-4.6,11.9-9.2,23.7-13.8,35.5c-0.6,1.6-1.3,3.2-2.3,4.7
		c-0.9,1.3-1.8,2.7-3.3,2.9c-1.9,0.3-2,1.5-1.8,2.9c0,0.2,0,0.4,0,0.7c0.1,1.3,0.1,1.3,1.3,1.3c2.7,0,5.4,0,8.2,0c2.6,0,5.2,0,7.7,0
		c0.4,0,0.8,0,1.2,0c0.3,0,0.7-0.1,0.7-0.6c0-1.2,0.4-2.6-0.2-3.6c-0.5-0.8-1.7-0.2-2.7-0.3c-0.1,0-0.2,0-0.3,0
		c-2-0.1-2.7-0.8-2.7-2.7c0-2.7,0.9-5.2,1.7-7.8c0.2-0.6,0.5-0.8,1.1-0.8c3.6,0,7.3,0,10.9,0c0.6,0,0.9,0.2,1.1,0.8
		c1.1,3.2,2.4,6.3,3.3,9.6c0.1,0.6,0.2,1-0.6,1c-0.4,0-0.5,0.3-0.5,0.7c0,0.8,0,1.5,0,2.4c0,1.3,0,1.4,1.4,1.4c3.8,0,7.6,0.1,11.4,0
		C334.3,209.8,333.6,210.7,333.6,206.5z M304.5,189c1.5-4,3.1-7.7,4.7-12c1.6,4.1,2.8,8,4.2,12C310.3,189,307.5,189,304.5,189z"/>
	<path class="st0" d="M293.5,317c-0.2-3-2.6-5.5-5.4-5.8c-3.5-0.4-6.2,1.1-7.3,4.2c-0.6,1.7-0.8,3.4-0.5,5.2
		c0.2,1.3,0.9,2.4,1.3,3.6c-2.2,0-4.3,0.1-6.5,0c-2-0.1-2.9-1.2-2.9-3.1c0-1.2,0.1-2.4,0-3.5c-0.1-1.3,0-2.4,1.3-3.1
		c0.6-0.3,0.4-0.8-0.2-1.1c-1.1-0.5-2.2-1-3.3-1.5c-1-0.5-1.3-0.3-1.3,0.8c0,1,0,2,0,3c0,2.5,0,5,0,7.5c0,0.6,0,1.1-0.8,1.1
		c-2,0-4,0.1-6-0.1c-1.7-0.1-2.7-1.3-2.7-3c0-0.6,0-1.1,0-1.7c-0.3-4.4-2.4-6.7-6.6-8.2c-0.1-0.1-0.3,0-0.5,0.3
		c0.2,0.5,0.8,0.6,1.2,1c1.2,1,2.1,2.1,2.2,3.6c0.2,2.4,0.2,4.8,0.3,7.2c0,0.6-0.2,0.9-0.8,0.8c-2.7-0.2-5.4,0.7-8-1.2
		c0.2,1,0.3,1.7,0.4,2.4c0.1,0.8,0.5,1,1.3,1c2.7-0.1,5.4,0,8.2,0c2.2,0,2.2,0,2.5-1.9c0.2-0.1,0.3,0.1,0.4,0.2
		c0.8,1.3,2,1.7,3.6,1.7c2.4-0.1,4.7,0,7,0c1.7,0,1.7,0,2-2c2,2,2,2,4.8,2c3,0,6,0,9,0c2.1,0,4.1,0,6.2,0c0.6,0,1.1-0.1,1.1-0.8
		C293.6,322.7,293.7,319.9,293.5,317z M289,324.4c-0.4,0-0.8,0-1.2,0c-2.5,0.2-3.4-1.3-3.9-3.1c-0.6-2-0.4-4.1,0.1-6.1
		c0.1-0.4,0.3-0.8,0.5-1.3c0.6-1,1.4-1.7,2.7-1.7c1.2,0.1,1.9,0.8,2.3,1.9c0.4,1,0.6,2,0.6,3.1c0,1,0,2,0,3l0,0c0,1-0.1,2,0,3
		C290.3,324.2,289.9,324.5,289,324.4z"/>
	<path class="st0" d="M242.6,319c0-1-0.1-2-0.3-3c-0.6-2.7-2.4-4.4-5-4.8c-2.9-0.4-5.5,0.7-6.9,3c-1,1.7-1.3,3.6-1.2,5.7
		c0.2,3.8,2.9,6.4,6.7,6.6c0.4,0,0.9-0.1,1.3,0c0.6,0.1,1.4-0.3,1.6,0.3c0.2,0.7-0.3,1.4-0.8,1.9c-0.6,0.6-1.5,0.8-2.3,0.8
		c-0.7,0.1-1.5,0.1-2.2,0c-2.4-0.1-4.8,0.1-7.2-0.1c-2.4-0.3-3.9-1.6-4.5-3.9c-1-4-1-8,1.6-11.5c0.1-0.1,0.1-0.3-0.1-0.6
		c-2.8,2-4.7,4.5-5.4,7.8c-1,5.5,1.7,9.5,7.3,10.2c3.8,0.5,7.6,0.3,11.4,0.1s5.7-2.2,5.9-6C242.7,323.4,242.6,321.2,242.6,319z
		 M239.3,323.1c0.1,0.8-0.2,1.2-1.1,1.3c-4,0.3-5.2-1.3-5.4-5c-0.1-1.3,0.1-2.7,0.3-4c0.1-0.8,0.5-1.6,1-2.2
		c1.3-1.4,3.2-1.2,4.2,0.4c0.4,0.7,0.7,1.5,0.8,2.4c0.1,1.5,0.3,3.1,0.2,4.4C239.3,321.5,239.2,322.3,239.3,323.1z"/>
	<path class="st0" d="M167.4,313.4c-1.2-0.6-2.4-1.2-3.6-1.7c-0.8-0.3-1-0.1-1,0.7c0,0.4,0,0.8,0,1.2c0,3.2,0.1,6.3,0.1,9.6
		c0,1.2-0.1,1.2-1.3,1.2c-2,0-4,0-6,0c-0.9,0-1.2-0.3-1.1-1.2c0.1-1.7,0-3.3,0-5c0-1.7-0.5-3.2-1.5-4.5c-2.4-3.4-8.5-3.4-10.9,0.5
		c-0.8,1.4-1.3,3-1.3,4.6c0,4,2.2,7.8,7.1,7.7c2.7-0.1,5.4,0,8,0c3,0,6,0,9,0c1.2,0,1.2-0.1,1.3-1.3c0-2.6,0-5.1,0-7.7
		c0-1.2,0.1-2.2,1.3-2.9C168.1,314.2,168,313.8,167.4,313.4z M150.9,320.7c0,0.9,0,1.7,0,2.7c0,0.7-0.2,1-1,1c-0.6,0-1.3,0-1.8,0
		c-1.9-0.1-2.8-0.6-3.3-2.4c-0.9-2.7-0.7-5.2,0.3-7.8c0.4-1.1,1.3-1.9,2.5-1.9c1.3-0.1,2,0.8,2.5,1.9c0.7,1.5,0.7,3,0.8,4.5
		C151,319.4,150.9,320,150.9,320.7L150.9,320.7z"/>
</g>
</svg>
