<?xml version="1.0" encoding="utf-8"?>
<!-- Generator: Adobe Illustrator 26.0.1, SVG Export Plug-In . SVG Version: 6.00 Build 0)  -->
<svg version="1.1" id="Layer_1" xmlns="http://www.w3.org/2000/svg" xmlns:xlink="http://www.w3.org/1999/xlink" x="0px" y="0px"
	 viewBox="0 0 510.2 516.7" style="enable-background:new 0 0 510.2 516.7;" xml:space="preserve">
<style type="text/css">
	.st0{fill:#C79C40;}
	.st1{fill:#C79C41;}
	.st2{fill:#C89D42;}
	.st3{fill:#C89E44;}
	.st4{fill:#C89E43;}
</style>
<g>
	<path class="st0" d="M281.8,132.8c3,1.4,6,2.1,9.3,1.2c1.9-0.5,3.5-1.5,5-2.7c11.8-10,23.5-19.9,35.3-29.9c1.7-1.5,3.5-2.8,5.7-3.4
		c2.7-0.8,5.4-0.5,8,0.5c0.6,0.2,0.8,0,0.6-0.6c-6.4-7.6-12.9-15.2-19.3-22.9c-1.7-2.1-3.8-3.6-6.4-4.3c-4.1-1.1-7.6,0.1-10.7,2.7
		c-3.3,2.8-6.6,5.6-9.9,8.4c-8.8,7.4-17.5,14.9-26.3,22.3c-4,3.4-8.4,3.9-13.2,2c-0.6-0.2-0.8-0.1-0.5,0.6
		c5.3,6.2,10.6,12.5,15.8,18.7c0.2,0.1,0.3,0.3,0.4,0.5c0.1,0.1,0.2,0.3,0.2,0.4c-0.2,0.2-0.4,0.2-0.7,0c-0.1,0-0.3-0.1-0.4-0.2
		c-0.2-0.1-0.4-0.2-0.6-0.3c-5.1-2.1-9.6-1.4-13.8,2.2c-8.7,7.5-17.5,14.9-26.3,22.3c-3.2,2.7-6.3,5.4-9.5,8.1
		c-5.4,4.5-12.7,4-17.3-1.4c-4.5-5.3-9-10.6-13.5-15.9c-0.2-0.2-0.3-0.4-0.5-0.5c-1.3-1.5-1.3-1.5-2.8-0.3c-2.4,2-4.7,4-7.1,6.1
		c-2.4,2.1-4.9,4.1-7.3,6.2c-5.1,4.5-13.1,4.1-17.9-1.6c-18-21.5-36.2-42.8-54.3-64.3c-3.9-4.6-7.8-9.1-11.6-13.7
		c-1.2-1.4-1.2-1.5,0.1-2.6c5.2-4.4,10.4-8.8,15.5-13.2c4.5-3.8,12.3-3.7,16.6,1.4c4.2,4.9,8.4,9.9,12.6,14.8c0.5,0.5,1,1.1,1.4,1.7
		c3.4,5.3,11.8,5.3,16.2,1.5c2.4-2,4.7-4,7.1-6.1c9.7-8.3,19.5-16.5,29.2-24.8c5.7-4.9,13.4-4,17.9,1.4c6.7,8.1,13.5,16,20.3,24
		c0.1,0.4,0,0.7-0.5,0.5c-5.2-2.6-10-2.2-14.4,1.7c-11.6,9.9-23.3,19.7-34.8,29.6c-4.1,3.5-8.4,4.7-13.5,3.2c-0.6-0.2-0.8,0-0.6,0.6
		c6.4,7.6,12.8,15.1,19.1,22.7c4.4,5.2,12.1,5.9,17.3,1.4c9.8-8.5,19.8-16.9,29.7-25.3c1.9-1.7,3.9-3.3,5.8-5
		c3.9-3.4,8.3-4.2,13.1-2.4c0.3,0.1,0.6,0.2,0.9,0.3c0.1,0,0.1-0.1,0.4-0.2c-5.5-6.5-10.9-12.9-16.3-19.4c-0.1-0.5,0-0.7,0.5-0.5
		c5.3,2.5,10,1.8,14.4-2c11.3-9.7,22.7-19.2,34-28.9c0.7-0.6,1.5-1.2,2.2-1.8c5.2-4,12-3.6,16.4,1.3c3.3,3.7,6.4,7.5,9.7,11.3
		c1.6,1.9,3.2,3.8,4.8,5.7c1.1,1.2,1.1,1.3,2.4,0.2c4.8-4,9.5-8.1,14.2-12.1c2.2-1.9,4.6-3.2,7.5-3.4c4.2-0.3,7.7,1.1,10.4,4.3
		c3.9,4.6,7.9,9.3,11.8,13.9c11.1,13.1,22.1,26.1,33.2,39.2c7.2,8.5,14.3,17,21.6,25.4c0.8,0.9,1,1.4-0.1,2.3
		c-5.3,4.4-10.5,9.1-16,13.4c-5.1,4.1-12,3.4-16.4-1.6c-4.9-5.5-9.6-11.2-14.3-16.8c-1.5-1.8-3.4-2.8-5.7-3.3
		c-3.9-0.8-7.3,0.1-10.3,2.6c-6.4,5.4-12.7,10.7-19,16.1c-5.9,5-11.8,10.1-17.8,15c-5.2,4.3-12.5,3.7-16.8-1.3
		c-6.8-7.9-13.4-15.9-20.1-23.8c-0.1-0.1-0.2-0.3-0.3-0.4C281.6,133.2,281.6,133,281.8,132.8z"/>
	<path class="st0" d="M63.2,393.6c-4.2,0-8.5,0-12.7,0c-1.7,0-1.8,0-1.8-1.7c0-1.4-0.5-3.1,0.2-4.2c0.8-1.1,2.5-0.5,3.8-0.7
		c2.6-0.6,2.9-0.8,3.3-3.3c0.1-0.7,0.2-1.4,0.2-2.1c0-6.6,0-13.1,0-19.7c0-1.8,0-1.9-1.9-1.9c-7.3,0-14.5,0-21.8,0c-1.9,0-2,0-2,2.1
		c0,6,0,12,0,18c0,4.6,1.3,6.1,5.8,7.1c1.8,0.4,1.8,0.4,1.8,2.3c0,0.9-0.1,1.8,0,2.6c0.1,1.3-0.5,1.6-1.7,1.6c-5.8,0-11.7,0-17.5,0
		c-2.9,0-5.8,0-8.6,0c-1.3,0-1.7-0.4-1.6-1.7c0.1-1.1,0.1-2.2,0-3.4c-0.1-1,0.4-1.4,1.4-1.4c1.2,0,2.4-0.3,3.6-0.4
		c1.4-0.2,2.1-1,2.3-2.4c0.2-1.3,0.4-2.5,0.4-3.8c0-14.1,0-28.3,0-42.4c0-1-0.1-1.9-0.2-2.9c-0.4-2.7-0.7-3-3.4-3.5
		c-0.2,0-0.5-0.1-0.7-0.1c-1-0.2-2.3,0.3-3-0.4c-0.8-0.8-0.2-2.1-0.3-3.2c0-0.6,0-1.1,0-1.7c0-0.8,0.3-1.2,1.1-1.2c0.5,0,1,0,1.4,0
		c8.1,0,16.1,0,24.2,0c0.5,0,1,0,1.4,0c0.8,0,1.2,0.3,1.2,1.1c0,1.4,0,2.7,0,4.1c0,0.8-0.4,1.1-1.2,1.2c-1.3,0-2.5,0.2-3.8,0.4
		c-1.5,0.3-2.2,1.2-2.3,2.6c-0.1,1-0.3,1.9-0.3,2.9c0,4.6,0,9.1,0,13.7c0,1.2,0.3,1.7,1.6,1.7c7.5,0,15,0,22.5,0
		c1.1,0,1.6-0.4,1.5-1.5c-0.1-4.9,0-9.8,0-14.6c0-0.2,0-0.3,0-0.5c-0.4-3.6-0.9-4.2-4.6-4.5c-3-0.3-3-0.3-3-3.4c0-3.4-0.4-3,3.1-3
		c8,0,16,0,24,0c2.3,0,2.3,0,2.3,2.4c0,1.2,0.4,2.6-0.2,3.5c-0.7,1-2.2,0.4-3.4,0.6c-3,0.5-3.7,1.1-3.8,4.1
		c-0.1,1.8-0.1,3.7-0.1,5.5c0,12.9,0,25.7,0,38.6c0,1.4,0,2.9,0.2,4.3c0.2,1.6,0.8,2.2,2.4,2.5c1,0.2,2.1,0.3,3.1,0.4
		c1.8,0.2,1.8,0.2,1.8,2c-0.1,5.3,0.8,4.3-4.4,4.4C70.2,393.6,66.7,393.6,63.2,393.6z"/>
	<path class="st0" d="M486.9,294.8c-4.3,0-8.6,0-12.9,0c-1.7,0-1.7-0.1-1.8-1.7c0-0.2,0-0.3,0-0.5c0.1-1.3-0.5-2.7,0.2-3.7
		c0.7-1,2.2-0.4,3.4-0.5c2.9-0.5,3.4-1,3.8-4c0.1-0.6,0.1-1.1,0.1-1.7c0-6.5,0-13,0-19.4c0-2,0-2-2-2c-7.2,0-14.4,0-21.6,0
		c-1.8,0-1.8,0.1-1.8,1.9c0,6.3,0,12.6,0,18.9c0,3.6,1.3,5.2,4.9,6.1c0.5,0.1,0.9,0.2,1.4,0.2c0.8,0,1.2,0.3,1.2,1.2
		c0,1.4,0,2.7,0,4.1c0,0.8-0.4,1.2-1.2,1.2c-0.5,0-1,0-1.4,0c-8.1,0-16.1,0-24.2,0c-0.6,0-1.1,0-1.7,0c-0.6,0-0.9-0.4-0.9-0.9
		c0-1.4,0-2.9,0-4.3c0-0.8,0.4-1.1,1.2-1.1c1.3,0,2.5-0.1,3.8-0.4c1.4-0.3,2.1-1,2.3-2.4c0.2-1,0.3-2.1,0.3-3.1
		c0-14.6,0-29.3,0-43.9c0-0.2,0-0.3,0-0.5c-0.2-4.7-1.2-4.9-4.9-5.1c-0.4,0-0.8-0.1-1.2-0.1c-1.1,0-1.5-0.5-1.5-1.6
		c-0.2-4.9-0.3-4.9,4.6-4.9c7.5,0,15,0,22.5,0c2.2,0,2.2,0,2.2,2.3c0,4,0,4-3.9,4.4c-2.6,0.3-3.4,1-3.4,3.7
		c-0.1,5.3,0,10.6-0.1,15.8c0,1.2,0.5,1.5,1.6,1.5c7.4,0,14.9,0,22.3,0c1.3,0,1.6-0.6,1.6-1.8c0-4.7,0-9.4,0-14.1c0-0.1,0-0.2,0-0.2
		c-0.3-4.1-0.8-4.6-4.8-4.9c-0.2,0-0.5,0-0.7-0.1c-2-0.2-2-0.2-2-2.3c0-0.9,0.1-1.8,0-2.6c-0.1-1.3,0.5-1.6,1.7-1.6
		c8.6,0,17.3,0,25.9,0c1.7,0,1.8,0,1.8,1.7c0,1.4,0.5,3.1-0.3,4.2c-0.8,1.1-2.5,0.5-3.8,0.7c-2.4,0.3-2.9,0.9-3.2,3.3
		c-0.1,1.2-0.3,2.4-0.3,3.6c0,13.7,0,27.3,0,41c0,1.4,0.2,2.9,0.3,4.3c0.1,1.4,0.8,2.3,2.3,2.6c1.2,0.2,2.4,0.4,3.6,0.4
		c1.1,0,1.4,0.4,1.4,1.4c0,1.1-0.1,2.2,0,3.4c0.1,1.3-0.5,1.6-1.7,1.6C495.5,294.8,491.2,294.8,486.9,294.8z"/>
	<path class="st0" d="M372.4,325.2c5.2,0,10.4,0,15.6,0c0.9,0,1.8-0.1,2.6-0.1c1,0,1.7-0.4,1.8-1.4c0.1-1,0.7-1.1,1.5-1.1
		c1.4,0,2.9,0.1,4.3,0c1.1-0.1,1.5,0.4,1.5,1.5c0,3.8,0,7.7,0,11.5c0,2.8,0,5.6,0,8.4c0,1.9,0,1.9-2,2c-1.7,0-3.4,0-5,0
		c-1.1,0-1.7-0.3-1.6-1.5c0-0.5,0-1-0.1-1.4c-1.4-9.5-8.2-11.5-14.8-11.5c-0.9,0-1.4,0.3-1.4,1.2c-0.1,4.1-0.6,8.3,0.3,12.4
		c1.5,6.2,4.9,8.9,11.2,8.9c1.9,0,3.8,0,5.8,0c1,0,1.4,0.4,1.4,1.4c0,1.6,0,3.2,0,4.8c0,1-0.4,1.4-1.4,1.4c-1.9,0-3.8,0-5.8,0.1
		c-3.2,0.1-6.4,0.3-9.6,0.3c-1,0-1.6,0.2-1.6,1.5c0,7.4,0,14.7,0,22.1c0,1.2,0.4,1.5,1.6,1.5c2.2,0,4.3-0.1,6.4-0.7
		c5-1.3,8.4-4.5,10.2-9.3c0.6-1.6,1.1-3.2,1.4-4.8c0.2-1.3,0.9-1.5,2-1.5c1.8,0.1,3.5,0,5.3,0c1.6,0,1.8,0.2,1.5,1.9
		c-0.8,4.2-1.7,8.3-2.5,12.4c-0.6,2.9-1.1,5.8-1.7,8.7c-0.4,1.8-0.4,1.8-2.4,1.9c-1,0-2.1,0-3.1,0c-1,0-2,0.1-1.7-1.5
		c0.1-0.6-0.4-0.8-0.9-0.8c-0.6,0-1.3,0-1.9,0c-10.9,0-21.9,0-32.8,0c-0.6,0-1.3,0-1.9,0c-0.9,0-1.3-0.5-1.2-1.3c0-0.3,0-0.6,0-1
		c0-1.2-0.3-2.6,0.2-3.5c0.6-1.2,2.2-0.3,3.3-0.7c0.5-0.1,0.9-0.2,1.4-0.3c1.5-0.2,2.2-1,2.5-2.5c0.2-1,0.3-1.9,0.3-2.9
		c0-14.7,0-29.4,0-44.1c0-4.8-0.7-5.5-5.5-5.8c-2.1-0.1-2.1-0.1-2.1-2.1c0-1,0-1.9,0-2.9c0-1,0.4-1.4,1.4-1.4c1.8,0,3.7,0,5.5,0
		C364.3,325.2,368.4,325.2,372.4,325.2z"/>
	<path class="st0" d="M284.8,357.2c0,7.5,0,15,0,22.5c0,4.8,1.2,6.4,5.8,7.2c1.4,0.3,2,0.6,1.8,2.1c-0.1,0.9-0.1,1.9,0,2.9
		c0.1,1.3-0.5,1.6-1.7,1.6c-8.7,0-17.4,0-26.1,0c-1.3,0-1.7-0.5-1.6-1.7c0.1-1.4-0.5-3.1,0.3-4.2c0.7-1.1,2.5-0.5,3.8-0.8
		c2.7-0.6,3.2-1,3.3-3.8c0.1-1.1,0.1-2.2,0.1-3.4c0-15.1,0-30.2,0-45.3c0-0.5,0-1,0-1.4c0.1-1.2-0.5-1.5-1.6-1.5
		c-4.1,0.2-7.4,1.9-9.3,5.7c-1.1,2.3-1.7,4.7-1.7,7.2c0,1.3-0.6,1.6-1.7,1.6c-1.8-0.1-3.7-0.1-5.5,0c-1,0-1.4-0.4-1.4-1.4
		c0-6.7,0-13.4,0-20.1c0-1.1,0.3-1.6,1.5-1.6c1,0.1,1.9,0,2.9,0c1.1,0,2.5-0.4,2.5,1.6c0,0.4,0.5,0.6,0.9,0.7c0.6,0,1.3,0,1.9,0
		c12.5,0,24.9,0,37.4,0c0.5,0,1,0,1.4,0c0.8,0,1.4-0.3,1.4-1.2c0-0.9,0.5-1.1,1.2-1c0.1,0,0.2,0,0.2,0c1.8,0.1,4.1-0.7,5.4,0.3
		c1.3,1.1,0.4,3.5,0.5,5.3c0.1,5.1,0,10.2,0,15.4c0,2.2,0,2.2-2.3,2.2c-1.6,0-3.2,0-4.8,0c-1.1,0-1.6-0.3-1.6-1.5
		c0-1.7-0.3-3.3-0.8-4.9c-1.5-4.8-5-7.6-10-7.9c-1.9-0.1-2-0.1-2,1.9c0,7.2,0,14.4,0,21.6C284.8,355.8,284.8,356.5,284.8,357.2z"/>
	<path class="st0" d="M320.5,259.4c3.9-6.4,7.7-12.8,9-20.3c0.1-0.4,0.1-0.8,0.2-1.2c0.3-3.6-0.6-4.6-4.2-4.8
		c-4.7-0.3-3.8,0.2-3.9-4.1c0-0.4,0-0.8,0-1.2c0-0.9,0.4-1.3,1.3-1.3c1.4,0,2.9,0,4.3,0c7.1,0,14.2,0,21.3,0c1.9,0,1.9,0,1.9,1.8
		c0,0.3,0,0.6,0,1c0,1,0.2,2.2-0.1,3.1c-0.4,1.1-1.8,0.7-2.7,1.1c-2.3,1-4.1,2.5-5.7,4.3c-2.2,2.6-3.8,5.5-5.5,8.4
		c-4,6.9-8,13.8-12.1,20.7c-0.6,1.1-0.9,2.1-0.9,3.4c0,3.8,0.1,7.5,0,11.3c-0.1,4.8,2.3,6.1,5.6,6.7c2,0.4,2.1,0.4,2,2.3
		c0,4.9,0.6,4.1-4,4.1c-7.7,0-15.3,0-23,0c-2.5,0-2.6,0-2.5-2.4c0-1.2-0.4-2.6,0.2-3.5c0.7-1,2.2-0.4,3.4-0.6
		c3.1-0.5,3.9-1.2,3.9-4.3c0.1-4.8,0-9.6,0.1-14.4c0-0.7-0.2-1.4-0.5-2.1c-4.6-9.1-8.9-18.4-13.7-27.4c-0.6-1.1-1.3-2.2-2-3.3
		c-1.4-2-3.2-3.4-5.7-3.7c-1.3-0.2-1.8-0.7-1.7-2c0.1-5.7-0.8-4.6,4.4-4.6c5.4-0.1,10.7,0,16.1,0c2.9,0,2.7-0.1,2.7,2.8
		c0,0.7,0,1.4,0,2.2c0,0.4,0.1,1-0.2,1.1c-1.9,0.6-0.8,1.7-0.4,2.6c3.8,7.6,7.6,15.2,11.4,22.7C319.6,258.3,319.7,258.9,320.5,259.4
		z"/>
	<path class="st0" d="M489.7,395.9c-0.2-2.3-0.2-2.4-2.3-2.4c-11.3,0-22.5,0-33.8,0c-2.8,0-2.6,0.2-2.6-2.6c0-1.1-0.3-2.4,0.2-3.3
		c0.6-1.1,2.1-0.3,3.1-0.6c0.6-0.2,1.3-0.2,1.9-0.3c1.1-0.2,1.8-0.9,2-2.1c0.2-1.3,0.4-2.7,0.4-4c0-14.1,0-28.3,0-42.4
		c0-0.9-0.1-1.8-0.2-2.6c-0.4-3.1-0.8-3.4-3.8-3.9c-1.2-0.2-2.9,0.5-3.3-0.6c-0.7-1.6-0.3-3.5-0.2-5.2c0-0.5,0.4-0.6,0.8-0.7
		c0.5,0,1,0,1.4,0c8.5,0,17.1-0.1,25.6-0.1c1.5,0,1.6,0.1,1.7,1.6c0,0.2,0,0.5,0,0.7c-0.1,1.3,0.5,2.7-0.3,3.7
		c-0.8,1-2.3,0.4-3.4,0.5c-3.2,0.4-3.8,1-3.9,4.3c-0.1,3.3-0.1,6.6-0.1,9.8c0,12.6,0,25.3,0,37.9c0,0.5,0,1,0,1.4
		c0,2.1,0,2.1,2.1,2.1c1.3,0,2.6,0,3.8-0.1c6.9-0.8,10.7-5.1,12.8-11.4c0.3-1,0.6-2,0.8-3c0.2-1.1,0.7-1.7,1.9-1.6
		c1.8,0.1,3.7,0,5.5,0c1.5,0,1.6,0.1,1.3,1.7c-1,4.7-1.9,9.4-2.9,14.1c-0.5,2.5-1.1,5-1.5,7.5c-0.2,1.2-0.6,1.7-1.8,1.6
		C493.3,395.9,491.6,395.9,489.7,395.9z"/>
	<path class="st0" d="M135.9,272.5c-0.8,4-1.6,7.8-2.3,11.5c-0.8,3.8-1.6,7.5-2.3,11.3c-0.4,1.9-0.4,1.9-2.3,1.9c-1,0-1.9,0-2.9,0
		c-1.1,0-2.2,0.2-2-1.5c0.1-0.6-0.5-0.8-1-0.8c-0.6,0-1.3,0-1.9,0c-10.8,0-21.6,0-32.4,0c-0.6,0-1.3,0-1.9,0c-0.9,0-1.3-0.4-1.3-1.3
		c0-0.4,0-0.8,0-1.2c0.1-1.2-0.5-2.6,0.3-3.5c0.7-0.9,2.1-0.3,3.2-0.5c3.1-0.4,3.7-1,3.9-4.1c0.1-1.8,0.2-3.5,0.2-5.3
		c0-12.5,0-24.9,0-37.4c0-1.7-0.1-3.4-0.3-5c-0.2-2.4-0.9-3-3.3-3.3c-1-0.1-1.9-0.2-2.9-0.2c-0.7-0.1-1.2-0.3-1.2-1.2
		c0.1-1.7-0.6-3.6,0.3-4.9c0.8-1.1,2.7-0.4,4.1-0.4c7.5,0,15,0,22.5,0c2.4,0,2.4,0,2.4,2.3c0,1.3,0.5,2.8-0.3,3.7
		c-0.8,1-2.4,0.5-3.7,0.6c-2.6,0.3-3.1,0.8-3.5,3.4c-0.1,1-0.2,2.1-0.2,3.1c0,15.4,0,30.9,0,46.3c0,0.5,0,1,0,1.4
		c0,0.5,0.3,0.9,0.8,1c5.1,0.3,10-0.1,13.8-4.1c2.3-2.4,3.6-5.3,4.5-8.4c1-3.4,1-3.5,4.5-3.5C132.5,272.5,134.1,272.5,135.9,272.5z"
		/>
	<path class="st1" d="M439.2,460.7c-20.2,0-40.4,0-60.7,0c-0.6,0-1.3,0-1.9,0c-0.9,0-1.3-0.4-1.3-1.3c0-1.4,0-2.9,0-4.3
		c0-1,0.3-1.5,1.4-1.5c0.6,0,1.1,0,1.7,0c40.6,0,81.2,0,121.8,0c0.4,0,0.8,0,1.2,0c1.8,0.1,1.9,0.1,1.8,1.9c0,1.6,0.7,3.7-0.4,4.8
		c-1,1-2.9,0.3-4.4,0.3C478.7,460.7,459,460.7,439.2,460.7z"/>
	<path class="st1" d="M70.5,460.7c-20.1,0-40.3,0-60.4,0c-0.6,0-1.3,0-1.9,0c-0.9,0-1.3-0.4-1.3-1.3c0-0.2,0-0.3,0-0.5
		c0.1-1.7-0.7-3.8,0.3-4.9c1-1.2,3.2-0.4,4.8-0.4c39.9,0,79.7,0,119.6,0c3.2,0,3-0.3,3,3c0,4.1,0,4.1-4.2,4.1
		C110.5,460.7,90.5,460.7,70.5,460.7z"/>
	<path class="st0" d="M210.6,458.5c0.5,11.8-4.2,14.2-10,15.8c-0.4-0.7,0.2-0.9,0.6-1c3.2-1.8,4.4-4.7,4.4-8.2c0-5.3,0-10.5,0-15.8
		c0-0.5,0-1,0-1.4c0-2.5,0.3-2.7,2.6-1.6c1.4,0.6,2.8,1.3,4.1,2c1.2,0.6,1.3,1.2,0.2,1.9c-1.7,1.1-2,2.5-2,4.3
		c0.1,2.5,1.2,4.1,3.7,4.4c2.4,0.3,4.8,0.1,7.2,0.1c0.7,0,1-0.4,1-1.1c0-0.3,0-0.6,0-1c0-7.7,0-15.3,0-23c0-1.4-0.2-2.9-0.3-4.3
		c-0.1-1.6,0.5-2.1,2-1.4c1.5,0.7,3,1.4,4.5,2.2c1.3,0.7,1.4,1.1,0.4,1.9c-1.7,1.1-1.8,2.6-1.7,4.4c0,7.7,0,15.3,0,23
		c0,2.2,0,2.3-2.2,2.3c-2.7,0-5.4-0.2-8.1,0C214.2,462,212.4,460.9,210.6,458.5z"/>
	<path class="st2" d="M190.3,444.9c0-4.9,0-9.7,0-14.6c0-0.6-0.1-1.1,0.1-1.7c0.2-0.7,0.6-1.2,1.4-0.8c1.9,0.9,3.7,1.8,5.6,2.8
		c0.7,0.4,0.6,1,0.1,1.3c-2.1,1.2-2,3.2-2,5.2c0,7.5,0,15,0,22.5c0,2.2,0,2.2-2.3,2.3c-0.2,0-0.5,0-0.7,0c-2.1,0-2.1,0-2.1-2.2
		C190.3,454.8,190.3,449.8,190.3,444.9C190.3,444.9,190.3,444.9,190.3,444.9z"/>
	<path class="st2" d="M234.8,444.8c0-4.8,0-9.6,0-14.4c0-0.6-0.1-1.1,0-1.7c0.1-0.8,0.6-1.4,1.5-0.9c1.8,0.9,3.6,1.8,5.4,2.7
		c0.9,0.4,0.7,1.1,0.1,1.5c-1.8,1.2-1.9,2.9-1.9,4.8c0,7.5,0,15,0,22.5c0,2.6,0,2.6-2.6,2.6c-0.4,0-0.8,0-1.2,0
		c-0.9,0-1.3-0.4-1.3-1.3c0-1.1,0-2.2,0-3.3C234.9,453.1,234.9,448.9,234.8,444.8C234.8,444.8,234.8,444.8,234.8,444.8z"/>
	<path class="st3" d="M162.9,430.8c0,1.8-1.4,3.4-3,3.4c-1.7,0-3.2-1.7-3.2-3.6c0-1.8,1.5-3.4,3-3.4
		C161.4,427.1,162.9,428.8,162.9,430.8z"/>
	<path class="st4" d="M175.3,470.2c0,1.9-1.4,3.5-3.2,3.4c-1.6-0.1-3-1.6-3-3.4c0-2,1.4-3.5,3.2-3.4
		C174,466.8,175.3,468.3,175.3,470.2z"/>
	<path class="st4" d="M286.5,433.9c-1.7,0.1-3.1-1.3-3.2-3.2c-0.1-1.9,1.3-3.6,3-3.6c1.7,0,3.1,1.3,3.2,3.2
		C289.6,432.2,288.2,433.8,286.5,433.9z"/>
	<path class="st4" d="M352.4,430.5c0-1.7,1.5-3.3,3.1-3.4c1.7,0,3.1,1.6,3.1,3.6c0,1.8-1.4,3.4-3,3.4
		C353.8,434.1,352.4,432.4,352.4,430.5z"/>
	<path class="st3" d="M155.2,430.9c-0.1,1.8-1.6,3.3-3.2,3.3c-1.7-0.1-3.1-1.8-3-3.7c0.1-1.8,1.6-3.4,3.2-3.3
		C153.9,427.3,155.3,429,155.2,430.9z"/>
	<path class="st4" d="M281.7,430.5c-0.1,1.9-1.5,3.4-3.3,3.3c-1.7-0.1-2.9-1.6-2.8-3.5c0.1-2,1.5-3.4,3.3-3.3
		C280.5,427.1,281.8,428.8,281.7,430.5z"/>
	<path class="st4" d="M334.5,431.9c0,1.8-1.5,3.4-3,3.4c-1.8,0-3.2-1.5-3.1-3.5c0-1.9,1.3-3.3,3-3.4
		C333.1,428.4,334.5,430,334.5,431.9z"/>
	<path class="st4" d="M183,470.3c0,1.9-1.3,3.3-3,3.3c-1.7,0-3.2-1.7-3.1-3.5c0.1-1.8,1.4-3.3,3.1-3.3
		C181.7,466.8,183.1,468.3,183,470.3z"/>
	<path class="st0" d="M205.1,289.6c0-0.6-0.2-1.1-0.9-1.2c-4.9-0.9-8.2-4.1-11-7.9c-4.2-5.7-7.7-11.8-11.6-17.6
		c-0.7-1-0.4-1.5,0.5-2.1c2.1-1.2,4-2.7,5.8-4.3c5.2-4.7,8.3-10.5,8.1-17.7c-0.2-5.9-3.3-9.9-9-11.5c-2.6-0.7-5.2-0.9-7.8-0.9
		c-10.5,0-20.9,0-31.4,0c-0.5,0-1,0-1.4,0c-0.8,0-1.2,0.3-1.2,1.1c0,1.4,0,2.7,0,4.1c0,0.8,0.3,1.2,1.1,1.3c1,0.1,2.1,0.1,3.1,0.3
		c2.2,0.3,2.8,0.8,3.1,2.9c0.2,0.9,0.3,1.9,0.3,2.9c0,14.4,0,28.8,0,43.2c0,1.3-0.2,2.5-0.4,3.8c-0.2,1.1-0.8,1.7-1.9,1.9
		c-0.6,0.1-1.3,0.2-1.9,0.4c-1.1,0.2-2.5-0.4-3.2,0.5c-0.7,0.9-0.2,2.3-0.3,3.5c0,0.4,0,0.8,0,1.2c0,0.9,0.3,1.3,1.2,1.3
		c0.6,0,1.1,0,1.7,0c7.5,0,15,0,22.5,0c4.7,0,4,0.8,4.1-4.2c0-1.5,0-2-1.9-2.3c-4.1-0.5-5.8-2.2-5.9-6.2c-0.1-5.1,0-10.2,0-15.3
		c0.2-0.1,0.3-0.1,0.5-0.2c2.1,3.2,4.1,6.4,6.2,9.6c2.9,4.6,5.8,9.2,8.8,13.7c1.8,2.7,4.2,4.7,7.6,4.8c4.6,0.1,9.1,0,13.7,0.1
		c0.9,0,1.5-0.2,1.5-1.3C205.1,292.2,205.1,290.9,205.1,289.6z M179.9,252.6c-0.9,3.2-3.7,4.6-7,3.8c-1.7-0.4-3.3-1.2-4.8-2.1
		c-0.9-0.6-1.3-1.3-1.3-2.4c0-2.7,0-5.4,0-8.1c0-2.6,0-5.1,0-7.7c0-1.9,0.3-2.3,2-2.7c3.7-1,6.8-0.8,9.3,3.3
		C181.2,241.7,181.4,247.1,179.9,252.6z"/>
	<path class="st0" d="M200.9,355.2c-0.4-10.9-5-19.4-13.7-25.6c-9.4-6.7-19.9-7.7-30.6-4.3c-13.7,4.3-22.6,13.9-26.6,27.6
		c-2.3,7.8-2.1,15.8,1.5,23.2c6,12.5,16.1,18.8,29.9,19c2.4-0.1,4.8-0.2,7.2-0.6C190,390.5,201.5,371,200.9,355.2z M186.8,370.7
		c-1.3,6.9-5.1,12.3-11.9,14.8c-5.8,2.1-11.6,1.3-16.9-1.5c-7-3.7-11.1-9.9-13.8-17.2c-1.4-3.9-2.1-8-2-12.3
		c-0.1-3.7,0.5-7.4,2-10.9c4.4-10,13.8-12.8,22.4-10.2c6.6,2,11.9,5.8,15.4,11.8C186.6,353,188.5,361.6,186.8,370.7z"/>
	<path class="st0" d="M276.5,289.9c0-0.9-0.2-1.5-1.2-1.6c-2.8-0.4-4.7-2.2-6-4.7c-0.9-1.9-1.7-3.8-2.4-5.7
		c-5.7-16.7-11.5-33.4-17.3-50c-1.6-4.7-0.3-3.8-5.6-3.9c-3.1-0.1-2.5,0-3.4,2.3c-6.4,16.4-12.8,32.9-19.2,49.3
		c-1,2.5-1.9,4.9-3.3,7.2c-1.3,2.2-3,4.1-5.5,5.2c-0.8,0.3-2,0-2.3,1c-0.3,0.8-0.1,1.7-0.1,2.6c0,0.5,0,1,0,1.4
		c0.1,1.7,0.1,1.7,1.8,1.7c4.6,0,9.1,0,13.7,0c3.3,0,6.6,0,9.8,0c2.1,0,2.1,0,2.1-2.2c0-0.9-0.1-1.8,0-2.6c0.1-1.3-0.5-1.7-1.7-1.6
		c-1.1,0.1-2.2,0-3.4,0c-2.2-0.1-3.4-1.2-3.5-3.4c-0.1-0.8,0-1.6,0.1-2.4c0.4-3,1.2-5.9,2.2-8.8c0.4-1.2,0.9-1.7,2.2-1.6
		c5,0.1,9.9,0,14.9,0c1,0,1.6,0.2,2,1.3c1.6,4.8,3.3,9.7,5,14.7c-1.9,0.6-1.9,0.6-1.9,2.3c0,0.8,0,1.6,0,2.4c0,2,0,2,2,2
		c5.5,0,11,0.1,16.5,0C277.4,294.7,276.4,295.9,276.5,289.9z M246.1,265c-3.7,0-7.3,0-11.4,0c2.1-5.9,4.4-11.3,6.5-16.8
		c0.2,0,0.4,0,0.6,0.1c1.7,5.1,3.5,10.3,5.2,15.4C247.4,264.6,247.1,265,246.1,265z"/>
	<path class="st0" d="M75.1,290c0-0.9-0.2-1.5-1.2-1.6c-2.8-0.4-4.7-2.2-6-4.7c-0.9-1.9-1.7-3.8-2.4-5.7
		c-5.7-16.7-11.5-33.4-17.3-50.1c-1.6-4.7-0.3-3.8-5.6-3.9c-3.1,0-2.5,0-3.4,2.3C33.1,242,27,257.7,20.8,273.4c-1.2,3-2.2,6.2-3.9,9
		c-1.4,2.4-3.1,4.5-5.7,5.6c-0.7,0.3-1.7,0.1-2.2,0.8c-0.5,0.8-0.1,1.7-0.2,2.6c0,0.2,0,0.5,0,0.7c0,2.8-0.2,2.7,2.5,2.7
		c3.7,0,7.4,0,11,0c3.9,0,7.8,0,11.7,0c2,0,2.1,0,2-2c0-1.4,0.7-3.2-0.4-4.1c-0.9-0.9-2.6-0.3-3.9-0.3c-3.2-0.1-4.4-1.2-4.2-4.4
		c0.2-3.7,1.3-7.2,2.4-10.7c0.3-0.9,0.9-1.2,1.8-1.1c1.3,0,2.6,0,3.8,0c3.8,0,7.5,0,11.3,0c0.8,0,1.5,0.1,1.9,1.1
		c1.6,4.5,3.4,8.9,4.8,13.6c0.2,0.8,0.6,1.6-0.8,1.7c-0.8,0-0.8,0.7-0.8,1.2c0,1,0,2.1,0,3.1c0,2,0,2,2,2c5.5,0,11,0.1,16.5,0
		C75.9,294.7,75,295.9,75.1,290z M33.3,264.8c2.2-5.6,4.4-11.1,6.5-16.6c0.2,0,0.3,0,0.5,0c1.9,5.5,3.7,10.9,5.6,16.6
		C41.7,264.8,37.7,264.8,33.3,264.8z"/>
	<path class="st0" d="M422.2,289.9c0-1-0.3-1.4-1.3-1.6c-2.8-0.5-4.7-2.2-6-4.7c-1.1-2.1-1.9-4.4-2.7-6.7
		c-5.6-16.2-11.1-32.5-16.8-48.7c-1.8-5.3-0.4-4.2-6-4.3c-2.3,0-2.3,0-3.1,2.1c-6.6,17-13.2,33.9-19.8,50.9
		c-0.9,2.3-1.8,4.6-3.3,6.7c-1.3,1.8-2.6,3.8-4.8,4.2c-2.7,0.5-2.8,2.1-2.6,4.1c0,0.3,0,0.6,0,1c0.1,1.9,0.1,1.9,1.9,1.9
		c3.9,0,7.8,0,11.7,0c3.7,0,7.4,0,11,0c0.6,0,1.1,0,1.7,0c0.5,0,1-0.2,1-0.8c0-1.7,0.6-3.7-0.3-5.2c-0.7-1.1-2.5-0.3-3.8-0.4
		c-0.2,0-0.3,0-0.5,0c-2.8-0.1-3.9-1.1-3.9-3.9c0-3.9,1.3-7.5,2.4-11.2c0.3-0.8,0.7-1.1,1.6-1.1c5.2,0,10.4,0,15.6,0
		c0.8,0,1.3,0.3,1.6,1.1c1.6,4.6,3.5,9.1,4.8,13.8c0.2,0.8,0.3,1.4-0.8,1.4c-0.6,0-0.7,0.5-0.7,1c0,1.1,0,2.2,0,3.4c0,1.9,0,2,2,2
		c5.4,0,10.9,0.1,16.3,0C423.1,294.7,422.1,295.9,422.2,289.9z M380.4,264.9c2.2-5.7,4.4-11.1,6.7-17.2c2.3,5.9,4,11.5,6,17.2
		C388.8,264.9,384.8,264.9,380.4,264.9z"/>
	<path class="st0" d="M364.7,448.3c-0.3-4.3-3.7-7.9-7.7-8.3c-5-0.6-8.9,1.6-10.5,6c-0.9,2.4-1.1,4.9-0.7,7.5
		c0.3,1.8,1.3,3.4,1.9,5.2c-3.2,0-6.2,0.1-9.3,0c-2.8-0.1-4.1-1.7-4.1-4.5c0-1.7,0.1-3.4,0-5c-0.1-1.8,0-3.5,1.9-4.5
		c0.9-0.5,0.6-1.2-0.3-1.6c-1.6-0.7-3.2-1.5-4.8-2.2c-1.5-0.7-1.9-0.4-1.9,1.2c0,1.4,0,2.9,0,4.3c0,3.6,0,7.2,0,10.8
		c0,0.8,0,1.6-1.2,1.6c-2.9,0-5.8,0.1-8.6-0.1c-2.5-0.2-3.8-1.8-3.8-4.3c0-0.8,0-1.6,0-2.4c-0.4-6.3-3.4-9.6-9.5-11.8
		c-0.2-0.1-0.5,0-0.7,0.4c0.3,0.7,1.1,0.9,1.7,1.4c1.7,1.4,3,3,3.2,5.2c0.3,3.4,0.3,6.9,0.4,10.3c0,0.8-0.3,1.3-1.1,1.2
		c-3.8-0.3-7.8,1-11.5-1.7c0.3,1.4,0.5,2.4,0.6,3.4c0.1,1.1,0.7,1.4,1.8,1.4c3.9-0.1,7.8,0,11.7,0c3.1,0,3.1,0,3.6-2.7
		c0.3-0.1,0.4,0.2,0.6,0.3c1.2,1.9,2.9,2.5,5.1,2.4c3.4-0.1,6.7,0,10.1,0c2.5,0,2.5,0,2.8-2.8c2.8,2.8,2.8,2.8,6.9,2.8
		c4.3,0,8.6,0,12.9,0c3,0,5.9,0,8.9,0c0.9,0,1.6-0.1,1.6-1.2C364.8,456.5,365,452.4,364.7,448.3z M358.3,458.9c-0.6,0-1.1,0-1.7,0
		c-3.6,0.3-4.9-1.9-5.6-4.4c-0.8-2.9-0.6-5.9,0.1-8.8c0.2-0.6,0.4-1.2,0.7-1.8c0.8-1.5,2-2.5,3.8-2.4c1.7,0.1,2.7,1.2,3.3,2.7
		c0.6,1.4,0.9,2.9,0.9,4.4c0,1.4,0,2.9,0,4.3c0,0,0,0,0,0c0,1.4-0.1,2.9,0,4.3C360.1,458.6,359.5,459,358.3,458.9z"/>
	<path class="st0" d="M291.8,451.2c0-1.5-0.1-2.9-0.5-4.3c-0.9-3.8-3.5-6.3-7.1-6.9c-4.2-0.6-7.9,1-9.9,4.3
		c-1.5,2.5-1.9,5.2-1.7,8.1c0.3,5.4,4.1,9.2,9.6,9.4c0.6,0,1.3-0.1,1.9,0c0.8,0.1,2-0.5,2.3,0.5c0.3,1-0.5,2-1.2,2.7
		c-0.9,0.9-2.1,1.2-3.3,1.2c-1,0.1-2.1,0.1-3.1,0c-3.4-0.1-6.9,0.2-10.3-0.2c-3.4-0.5-5.6-2.3-6.4-5.6c-1.5-5.8-1.4-11.4,2.3-16.5
		c0.1-0.2,0.2-0.4-0.1-0.9c-4,2.8-6.8,6.4-7.7,11.2c-1.5,7.9,2.5,13.6,10.4,14.6c5.4,0.7,10.9,0.5,16.3,0.2c5.4-0.3,8.1-3.2,8.4-8.6
		C291.9,457.4,291.8,454.3,291.8,451.2z M287,457.1c0.1,1.2-0.3,1.7-1.6,1.8c-5.7,0.4-7.4-1.8-7.8-7.2c-0.2-1.9,0.1-3.8,0.5-5.7
		c0.2-1.2,0.7-2.3,1.5-3.2c1.9-2,4.6-1.7,6,0.6c0.6,1,1,2.2,1.1,3.4c0.2,2.2,0.4,4.4,0.3,6.3C287,454.7,286.9,455.9,287,457.1z"/>
	<path class="st0" d="M183.9,443.2c-1.7-0.9-3.4-1.7-5.2-2.4c-1.1-0.5-1.5-0.2-1.5,1c0,0.6,0,1.1,0,1.7c0,4.6,0.1,9.1,0.1,13.7
		c0,1.7-0.1,1.7-1.8,1.7c-2.9,0-5.7,0-8.6,0c-1.3,0-1.7-0.5-1.6-1.7c0.1-2.4,0-4.8,0-7.2c0-2.4-0.7-4.6-2.1-6.5
		c-3.4-4.9-12.2-4.9-15.6,0.7c-1.2,2-1.9,4.3-1.9,6.6c0,5.8,3.1,11.2,10.2,11c3.8-0.1,7.7,0,11.5,0c4.3,0,8.6,0,12.9,0
		c1.7,0,1.7-0.1,1.8-1.8c0-3.7,0-7.3,0-11c0-1.7,0.2-3.1,1.9-4.1C185,444.3,184.9,443.7,183.9,443.2z M160.3,453.6
		c0,1.3,0,2.5,0,3.8c0,1-0.3,1.5-1.4,1.5c-0.9,0-1.8,0-2.6,0c-2.7-0.1-4-0.9-4.8-3.4c-1.3-3.8-1-7.5,0.4-11.2
		c0.6-1.6,1.8-2.7,3.6-2.7c1.9-0.1,2.9,1.2,3.6,2.7c1,2.1,1,4.3,1.1,6.5C160.4,451.7,160.3,452.6,160.3,453.6
		C160.3,453.6,160.3,453.6,160.3,453.6z"/>
</g>
</svg>
